# xmcd
#
# Track frame offsets:
#	150
#	12850
#	23184
#	31927
#	41063
#	53024
#	63870
#	75204
#	83843
#	96095
#	106493
#	118357
#	128972
#	139764
#	151537
#	162906
#	174465
#	183996
#	195473
#	205143
#	216094
#	228956
#	238051
#	249092
#	260884
#	271794
#	282479
#	293917
#	304897
#	316039
#	327780
#	337733
#
# Disc length: 4673 seconds
#
# Revision: 0
# Processed by: cddbd v1.5.2PL0 Copyright (c) Steve Scherf et al.
# Submitted via: audiograbber 1.83.01
#
DISCID=b0123f20
DTITLE=Jim Reeves - My Early Years
DYEAR=2000
DGENRE=Country
TTITLE0=Bimbo
TTITLE1=In A Mansion Stands My Love
TTITLE2=Marie
TTITLE3=Overnight
TTITLE4=Mexican Joe
TTITLE5=My Rambling Heart
TTITLE6=Wagon Load Of Love
TTITLE7=Breeze
TTITLE8=I've Lived A Lot In My Time
TTITLE9=Ichabod Crane
TTITLE10=My Lips Are Sealed
TTITLE11=Your Old Love Letters
TTITLE12=Love Me A Little Bit More
TTITLE13=According To My Heart
TTITLE14=Each Time You Leave
TTITLE15=Highway To Nowhere
TTITLE16=Waiting For A Train
TTITLE17=Roly Poly
TTITLE18=Tweedle O ' Twill
TTITLE19=Oklahoma Hills
TTITLE20=Have I Told You Lately That I Love You
TTITLE21=Pickin' A Chicken
TTITLE22=I'm Hurtin' Inside
TTITLE23=Don't Ask Me Why
TTITLE24=Good Morning Self
TTITLE25=If You Were Mine
TTITLE26=That's A Sad Affair
TTITLE27=Just Walking In The Rain
TTITLE28=Jimbo Jenkins
TTITLE29=Room Full Of Roses
TTITLE30=The Wreck Of The Number Nine
TTITLE31=Where Does A Broken Heart Go
EXTD=
EXTT0=
EXTT1=
EXTT2=
EXTT3=
EXTT4=
EXTT5=
EXTT6=
EXTT7=
EXTT8=
EXTT9=
EXTT10=
EXTT11=
EXTT12=
EXTT13=
EXTT14=
EXTT15=
EXTT16=
EXTT17=
EXTT18=
EXTT19=
EXTT20=
EXTT21=
EXTT22=
EXTT23=
EXTT24=
EXTT25=
EXTT26=
EXTT27=
EXTT28=
EXTT29=
EXTT30=
EXTT31=
PLAYORDER=
